<svg xmlns="http://www.w3.org/2000/svg" xmlns:xlink="http://www.w3.org/1999/xlink" width="496" height="98pt" viewBox="0 0 371.64 98"><g id="graph0" class="graph" transform="scale(1 1) rotate(0) translate(4 94)"><title>graph_search</title><polygon fill="#fff" stroke="none" points="-4 4 -4 -94 367.642 -94 367.642 4 -4 4"/><g id="node1" class="node"><title>s1</title><ellipse cx="27" cy="-18" fill="none" stroke="#000" rx="27" ry="18"/><text x="27" y="-13.8" font-family="Times,serif" font-size="14" text-anchor="middle">s1</text></g><g id="node2" class="node"><title>s2</title><ellipse cx="130.214" cy="-55" fill="none" stroke="#000" rx="27" ry="18"/><text x="130.214" y="-50.8" font-family="Times,serif" font-size="14" text-anchor="middle">s2</text></g><g id="edge1" class="edge"><title>s1-&gt;s2</title><path fill="none" stroke="#000" d="M50.967,-26.3959C64.3307,-31.2811 81.4037,-37.5224 96.1899,-42.9277"/><polygon fill="#000" stroke="#000" points="95.394 -46.363 105.987 -46.509 97.797 -39.789 95.394 -46.363"/><text x="78.607" y="-40.8" font-family="Times,serif" font-size="14" text-anchor="middle">a1</text></g><g id="node3" class="node"><title>s3</title><ellipse cx="233.428" cy="-34" fill="none" stroke="#000" rx="27" ry="18"/><text x="233.428" y="-29.8" font-family="Times,serif" font-size="14" text-anchor="middle">s3</text></g><g id="edge2" class="edge"><title>s1-&gt;s3</title><path fill="none" stroke="#000" d="M54.0928,-16.2708C68.5588,-15.398 86.8741,-14.4342 103.214,-14 141.167,-12.9915 151.632,-10.6445 188.428,-20 191.873,-20.8759 195.445,-21.8685 198.996,-22.9109"/><polygon fill="#000" stroke="#000" points="198.241 -26.34 208.827 -25.926 200.293 -19.648 198.241 -26.34"/><text x="130.214" y="-16.8" font-family="Times,serif" font-size="14" text-anchor="middle">a2</text></g><g id="edge3" class="edge"><title>s2-&gt;s3</title><path fill="none" stroke="#000" d="M156.233,-49.809C168.642,-47.2344 183.835,-44.082 197.381,-41.2714"/><polygon fill="#000" stroke="#000" points="198.265 -44.663 207.346 -39.204 196.843 -37.809 198.265 -44.663"/><text x="181.821" y="-47.8" font-family="Times,serif" font-size="14" text-anchor="middle">a1</text></g><g id="node4" class="node"><title>s4</title><ellipse cx="336.642" cy="-72" fill="none" stroke="#000" rx="27" ry="18"/><text x="336.642" y="-67.8" font-family="Times,serif" font-size="14" text-anchor="middle">s4</text></g><g id="edge4" class="edge"><title>s2-&gt;s4</title><path fill="none" stroke="#000" d="M156.285,-59.931C162.458,-61.042 169.062,-62.1442 175.214,-63 226.655,-70.1557 239.709,-73.5901 291.642,-73 294.182,-72.9711 296.805,-72.9329 299.446,-72.8882"/><polygon fill="#000" stroke="#000" points="299.655 -76.385 309.585 -72.69 299.519 -69.386 299.655 -76.385"/><text x="233.428" y="-74.8" font-family="Times,serif" font-size="14" text-anchor="middle">a2</text></g><g id="edge5" class="edge"><title>s3-&gt;s2</title><path fill="none" stroke="#000" d="M209.257,-25.6459C198.711,-23.0363 186.167,-21.6212 175.214,-25 168.328,-27.124 161.557,-30.7353 155.469,-34.7314"/><polygon fill="#000" stroke="#000" points="153.188 -32.06 147.104 -40.733 157.269 -37.747 153.188 -32.06"/><text x="181.821" y="-27.8" font-family="Times,serif" font-size="14" text-anchor="middle">a1</text></g><g id="edge6" class="edge"><title>s3-&gt;s4</title><path fill="none" stroke="#000" d="M257.395,-42.6228C270.983,-47.7243 288.405,-54.2655 303.36,-59.88"/><polygon fill="#000" stroke="#000" points="302.173 -63.173 312.765 -63.411 304.634 -56.62 302.173 -63.173"/><text x="285.035" y="-57.8" font-family="Times,serif" font-size="14" text-anchor="middle">a2</text></g></g></svg>